<svg xmlns="http://www.w3.org/2000/svg" viewBox="0 0 500 500" width="500" height="500" class="illustration"><title>Shopping Bag</title><g id="Layer_11" data-name="Layer 11"><polygon points="199.12 198.1 199.12 165.81 378.54 152.87 185.58 152.69 180.56 191.6 199.12 198.1" fill="#3fe2fd"></polygon><path d="M221.27,418.84s-9-27-3.38-42.79c0,0,28.16-9,36-36s1.13-48.43,1.13-48.43-16.9,81.65-100.8,77.71l-7.32,57.44Z" fill="#3fe2fd"></path><path d="M310.15,113.72a30.87,30.87,0,0,0-61.73,0V137.9l61.73,0Z" fill="none"></path><path d="M392.53,144.58a7.42,7.42,0,0,0-7.37-6.56L325,138V113.72a45.72,45.72,0,0,0-91.44,0v24.16l-54.51,0h0a7.42,7.42,0,0,0-7.36,6.48l-6,46.51a93.44,93.44,0,0,0-23.63,183.12l-6.4,49.68A7.41,7.41,0,0,0,143,432h274.8a7.43,7.43,0,0,0,7.38-8.29ZM248.42,113.72a30.87,30.87,0,0,1,61.73,0V138l-61.73,0ZM89.61,284.23a78.59,78.59,0,1,1,78.59,78.59A78.68,78.68,0,0,1,89.61,284.23Zm61.85,132.91L156.65,377A93.45,93.45,0,0,0,180.56,191.6l5-38.91,48,.05v32.69a7.43,7.43,0,1,0,14.85,0V152.75l61.73.06V184.4a7.43,7.43,0,0,0,14.86,0V152.82l53.53.05,30.93,264.27Z" fill="#251ac7"></path><path d="M222.64,310.24v-.58A13.91,13.91,0,0,0,221,303a13.89,13.89,0,0,0,2.09-7.36V295a13.92,13.92,0,0,0-2.18-7.5,13.94,13.94,0,0,0,1.62-6.53v-.57a13.93,13.93,0,0,0-1.5-6.3,13.94,13.94,0,0,0,2.33-7.73v-.59a14,14,0,0,0-14-14H194.64V238a14.56,14.56,0,0,0-14.55-14.54h-.62a14.57,14.57,0,0,0-14.54,14.6,24.13,24.13,0,0,1-9.14,19l-1.32,1.06A9.87,9.87,0,0,0,147.3,255H119.42a9.93,9.93,0,0,0-9.91,9.91v46.16a9.93,9.93,0,0,0,9.91,9.91H147.3a9.83,9.83,0,0,0,5.33-1.57,26.68,26.68,0,0,0,15.22,4.8h40.78A14,14,0,0,0,222.64,310.24ZM143.21,307h-19.7V269h19.7Zm24.66,3.23h0a12.65,12.65,0,0,1-9.41-4.21,7,7,0,0,0-1.23-1.08V273.13a7,7,0,0,0,2.48-1.25l4.84-3.87a38.12,38.12,0,0,0,14.4-30,.54.54,0,0,1,.54-.54h.63a.54.54,0,0,1,.54.54V258.6a7,7,0,0,0,3.74,6.19l.23.12a7,7,0,0,0,3.26.8l21.44,0v.58l-.85,0h0a7,7,0,0,0,0,14l0,.59a7,7,0,1,0,0,14H209v.7h-.39a7,7,0,0,0,0,14v.59Z" fill="#251ac7"></path></g></svg>